#!OML:ASF H:\Punching\Project 1\Capture day 1\Session 1\female.ASF
:FULLY-SPECIFIED
:DEGREES
1151
root -2.39684 15.1727 8.82687 21.2415 11.0429 3.35418
lowerback 4.0723 0.649914 1.58165
upperback -3.51177 0.945053 -0.691221
thorax -5.89392 0.38723 -1.69199
lowerneck -13.9426 -2.77798 4.0679
upperneck 14.3647 -5.21713 3.53005
head 6.68493 -1.97268 -0.0335248
rclavicle -3.23025e-014 -4.37326e-015
rhumerus -10.9002 30.0741 -81.6799
rradius 40.1308
rwrist -5.90296
rhand -11.5425 -7.56425
rfingers 7.12502
rthumb 14.4979 -37.0377
lclavicle -3.23025e-014 -4.37326e-015
lhumerus -41.5597 -38.8866 105.083
lradius 115.685
lwrist 0.721744
lhand -25.3449 4.72283
lfingers 7.12502
lthumb 1.17845 34.6993
rfemur -47.1701 -9.56704 11.8031
rtibia 51.4141
rfoot -16.5542 -13.1699
rtoes -7.1601
lfemur -9.40605 -20.4106 -0.100631
ltibia -1.59028e-014
lfoot -10.5592 24.3867
ltoes -15.0396
1152
root -2.32287 15.1944 8.79397 20.9579 11.0204 3.13792
lowerback 4.01223 0.630365 1.6447
upperback -3.54903 0.924851 -0.646481
thorax -5.89937 0.375311 -1.67846
lowerneck -13.9698 -2.66719 4.25264
upperneck 14.5754 -5.1086 3.46958
head 6.75218 -1.90772 -0.0743188
rclavicle -1.98785e-015 2.18663e-014
rhumerus -11.5292 31.4475 -82.2779
rradius 42.4085
rwrist -8.58158
rhand -10.9276 -8.62634
rfingers 7.12502
rthumb 15.0902 -38.0563
lclavicle -1.98785e-015 2.18663e-014
lhumerus -40.9603 -39.3863 105.013
lradius 115.662
lwrist 0.666589
lhand -25.4304 4.80622
lfingers 7.12502
lthumb 1.09585 34.7832
rfemur -46.5234 -9.30473 11.5771
rtibia 50.5778
rfoot -16.0148 -13.2715
rtoes -7.33178
lfemur -9.23426 -20.3907 -0.32876
ltibia 1.90833e-014
lfoot -10.2173 24.4091
ltoes -14.7573
1153
root -2.24511 15.2169 8.75893 20.6775 10.9747 2.92272
lowerback 3.94388 0.610806 1.69287
upperback -3.58007 0.903951 -0.591113
thorax -5.89391 0.36408 -1.64528
lowerneck -13.9906 -2.55013 4.43889
upperneck 14.7799 -4.9874 3.38728
head 6.8161 -1.83876 -0.120922
rclavicle -1.08338e-014 -7.95139e-016
rhumerus -12.1267 32.6589 -82.8639
rradius 44.6559
rwrist -10.979
rhand -10.3623 -9.63362
rfingers 7.12502
rthumb 15.6347 -39.0218
lclavicle -1.08338e-014 -7.95139e-016
lhumerus -40.3413 -39.8923 104.971
lradius 115.626
lwrist 0.54936
lhand -25.494 4.86662
lfingers 7.12502
lthumb 1.03446 34.8439
rfemur -45.8742 -9.02836 11.3293
rtibia 49.7027
rfoot -15.4396 -13.3564
rtoes -7.50601
lfemur -9.06396 -20.3501 -0.578209
ltibia -4.45278e-014
lfoot -9.85874 24.382
ltoes -14.4587
1154
root -2.16363 15.2403 8.72139 20.4019 10.9052 2.706
lowerback 3.87351 0.590167 1.72852
upperback -3.60758 0.881341 -0.522339
thorax -5.88397 0.352913 -1.59094
lowerneck -14.0034 -2.42473 4.62839
upperneck 14.9763 -4.84955 3.27642
head 6.87556 -1.76453 -0.175384
rclavicle 4.07509e-015 8.74653e-015
rhumerus -12.694 33.7441 -83.4313
rradius 46.8771
rwrist -13.1678
rhand -9.84378 -10.5794
rfingers 7.12502
rthumb 16.1341 -39.9279
lclavicle 4.07509e-015 8.74653e-015
lhumerus -39.7145 -40.3878 104.959
lradius 115.582
lwrist 0.376759
lhand -25.5215 4.90833
lfingers 7.12502
lthumb 1.00793 34.8857
rfemur -45.2218 -8.72888 11.0607
rtibia 48.7807
rfoot -14.8243 -13.4317
rtoes -7.67911
lfemur -8.89887 -20.2854 -0.840546
ltibia -3.18055e-014
lfoot -9.50192 24.2913
ltoes -14.1998
1155
root -2.07847 15.2649 8.68131 20.14 10.8118 2.48624
lowerback 3.80906 0.570944 1.77327
upperback -3.64304 0.861333 -0.453855
thorax -5.88558 0.342456 -1.54246
lowerneck -14.0085 -2.29494 4.82849
upperneck 15.173 -4.70367 3.14498
head 6.93354 -1.68777 -0.237275
rclavicle -2.98177e-015 -7.55382e-015
rhumerus -13.2477 34.6959 -84.0029
rradius 49.0736
rwrist -15.2047
rhand -9.34911 -11.4824
rfingers 7.12502
rthumb 16.6104 -40.7916
lclavicle -2.98177e-015 -7.55382e-015
lhumerus -39.1043 -40.8919 104.975
lradius 115.529
lwrist 0.181531
lhand -25.547 4.93173
lfingers 7.12502
lthumb 0.983308 34.9092
rfemur -44.573 -8.40191 10.775
rtibia 47.803
rfoot -14.1623 -13.5088
rtoes -7.86947
lfemur -8.74879 -20.1922 -1.1072
ltibia -4.45278e-014
lfoot -9.16632 24.1344
ltoes -14.0309
1156
root -1.98945 15.291 8.63916 19.8897 10.6992 2.27097
lowerback 3.74842 0.550044 1.82776
upperback -3.67931 0.839553 -0.388747
thorax -5.89015 0.330584 -1.5029
lowerneck -14.0222 -2.15878 5.04092
upperneck 15.3712 -4.54844 2.9923
head 6.99335 -1.60756 -0.30723
rclavicle -5.86415e-015 1.78906e-014
rhumerus -13.7792 35.533 -84.5731
rradius 51.2514
rwrist -17.1509
rhand -8.88568 -12.3438
rfingers 7.12502
rthumb 17.0565 -41.6151
lclavicle -5.86415e-015 1.78906e-014
lhumerus -38.5092 -41.4019 105.014
lradius 115.47
lwrist -0.000190163
lhand -25.5893 4.94627
lfingers 7.12502
lthumb 0.942365 34.9239
rfemur -43.9156 -8.05032 10.463
rtibia 46.7628
rfoot -13.4567 -13.5921
rtoes -8.06465
lfemur -8.6103 -20.0786 -1.38423
ltibia 4.45278e-014
lfoot -8.87533 23.9187
ltoes -13.9533
1157
root -1.89677 15.3181 8.59469 19.657 10.5648 2.05949
lowerback 3.71386 0.526676 1.88032
upperback -3.73872 0.81538 -0.318133
thorax -5.93429 0.317114 -1.45691
lowerneck -14.0173 -2.01317 5.26264
upperneck 15.5777 -4.37548 2.80822
head 7.05241 -1.52113 -0.386931
rclavicle 1.91827e-014 -1.98785e-015
rhumerus -14.3296 36.2797 -85.1553
rradius 53.4167
rwrist -19.0534
rhand -8.44064 -13.1758
rfingers 7.12502
rthumb 17.4848 -42.4095
lclavicle 1.91827e-014 -1.98785e-015
lhumerus -37.9787 -41.9082 105.116
lradius 115.405
lwrist -0.142947
lhand -25.6358 4.95887
lfingers 7.12502
lthumb 0.897515 34.9367
rfemur -43.2528 -7.6695 10.1289
rtibia 45.6558
rfoot -12.7038 -13.6936
rtoes -8.27881
lfemur -8.48825 -19.9396 -1.66695
ltibia -7.63333e-014
lfoot -8.63827 23.6556
ltoes -13.9391
1158
root -1.80058 15.3461 8.54803 19.4466 10.4061 1.86055
lowerback 3.6713 0.502354 1.92226
upperback -3.7936 0.789232 -0.244004
thorax -5.9693 0.303343 -1.40097
lowerneck -14.026 -1.85967 5.48621
upperneck 15.7744 -4.18866 2.60434
head 7.11111 -1.43001 -0.472137
rclavicle -1.10325e-014 1.98785e-014
rhumerus -14.8444 36.9426 -85.717
rradius 55.564
rwrist -20.9313
rhand -8.04808 -13.9566
rfingers 7.12502
rthumb 17.8626 -43.1562
lclavicle -1.10325e-014 1.98785e-014
lhumerus -37.458 -42.4167 105.245
lradius 115.331
lwrist -0.229473
lhand -25.6789 4.97458
lfingers 7.12502
lthumb 0.855873 34.9526
rfemur -42.5882 -7.25895 9.7628
rtibia 44.4813
rfoot -11.902 -13.8157
rtoes -8.49825
lfemur -8.38595 -19.7753 -1.96512
ltibia 2.8625e-014
lfoot -8.44171 23.3634
ltoes -13.9894
1159
root -1.70098 15.3749 8.49943 19.2619 10.2185 1.67692
lowerback 3.62245 0.478829 1.95206
upperback -3.84871 0.763295 -0.168966
thorax -6.00105 0.290273 -1.3372
lowerneck -14.0422 -1.69778 5.71533
upperneck 15.9609 -3.98739 2.37935
head 7.16827 -1.33396 -0.563724
rclavicle 2.0773e-014 7.95139e-016
rhumerus -15.3374 37.5281 -86.2671
rradius 57.6948
rwrist -22.7943
rhand -7.71225 -14.6784
rfingers 7.12502
rthumb 18.1857 -43.8483
lclavicle 2.0773e-014 7.95139e-016
lhumerus -36.9561 -42.9273 105.402
lradius 115.241
lwrist -0.251754
lhand -25.7391 4.98645
lfingers 7.12502
lthumb 0.797777 34.9647
rfemur -41.9276 -6.81966 9.36381
rtibia 43.2416
rfoot -11.0478 -13.9593
rtoes -8.72039
lfemur -8.30417 -19.582 -2.28402
ltibia 2.54444e-014
lfoot -8.2751 23.0553
ltoes -14.05
1160
root -1.5981 15.4047 8.44883 19.1047 10.0045 1.50522
lowerback 3.5542 0.454352 1.96397
upperback -3.89562 0.735 -0.0825837
thorax -6.01335 0.277391 -1.25111
lowerneck -14.0706 -1.5253 5.94155
upperneck 16.1298 -3.76645 2.13107
head 7.22265 -1.23148 -0.660524
rclavicle 3.53837e-014 -8.74653e-015
rhumerus -15.7893 38.0628 -86.7796
rradius 59.8077
rwrist -24.6387
rhand -7.44055 -15.3137
rfingers 7.12502
rthumb 18.4471 -44.459
lclavicle 3.53837e-014 -8.74653e-015
lhumerus -36.4429 -43.443 105.573
lradius 115.124
lwrist -0.21397
lhand -25.8067 5.00501
lfingers 7.12502
lthumb 0.732449 34.9835
rfemur -41.2782 -6.35091 8.93515
rtibia 41.9422
rfoot -10.1387 -14.126
rtoes -8.90958
lfemur -8.24666 -19.3607 -2.62057
ltibia -3.18055e-014
lfoot -8.12047 22.7439
ltoes -14.0947
1161
root -1.49216 15.4354 8.39636 18.9781 9.75816 1.34249
lowerback 3.45912 0.433148 1.96416
upperback -3.93069 0.709958 0.0115765
thorax -5.99771 0.267236 -1.1503
lowerneck -14.1168 -1.34378 6.16568
upperneck 16.2772 -3.52919 1.86344
head 7.27414 -1.12389 -0.761734
rclavicle -2.21645e-014 -7.15625e-015
rhumerus -16.1909 38.5414 -87.2513
rradius 61.8953
rwrist -26.4292
rhand -7.23002 -15.842
rfingers 7.12502
rthumb 18.6496 -44.968
lclavicle -2.21645e-014 -7.15625e-015
lhumerus -35.9149 -43.9631 105.746
lradius 114.983
lwrist -0.132781
lhand -25.8761 5.0233
lfingers 7.12502
lthumb 0.66537 35.002
rfemur -40.6519 -5.85252 8.48183
rtibia 40.5903
rfoot -9.16796 -14.3155
rtoes -9.06976
lfemur -8.21447 -19.1045 -2.97487
ltibia -1.59028e-014
lfoot -7.97384 22.4337
ltoes -14.1047
